<svg width="18.000000" height="17.000000" viewBox="0 0 18 17" fill="none" xmlns="http://www.w3.org/2000/svg" xmlns:xlink="http://www.w3.org/1999/xlink">
	<desc>
			Created with Pixso.
	</desc>
	<defs/>
	<path id="Vector" d="M8.5 16.11C3.8 16.11 0 12.31 0 7.61C0 2.92 3.8 -0.89 8.5 -0.89C13.19 -0.89 17 2.92 17 7.61C17 12.31 13.19 16.11 8.5 16.11ZM7.7 7.61C7.7 7.88 7.83 8.13 8.05 8.25L11.24 10.37C11.61 10.64 12.1 10.55 12.32 10.18C12.59 9.81 12.49 9.32 12.13 9.07L9.29 7.19L9.29 3.1C9.29 2.66 8.94 2.3 8.47 2.3C8.05 2.3 7.67 2.66 7.67 3.1L7.7 7.61Z" fill="#B24C5A" fill-opacity="1.000000" fill-rule="nonzero"/>
</svg>
