<svg width="17.000000" height="17.000000" viewBox="0 0 17 17" fill="none" xmlns="http://www.w3.org/2000/svg" xmlns:xlink="http://www.w3.org/1999/xlink">
	<desc>
			Created with Pixso.
	</desc>
	<defs/>
	<path id="Vector" d="M-0.3 0.17C-0.3 -0.41 0.17 -0.89 0.76 -0.89L7.85 -0.89C8.33 -0.89 9.01 -0.61 9.35 -0.27L16.08 6.46C16.91 7.29 16.91 8.64 16.08 9.47L10.05 15.49C9.22 16.32 7.87 16.32 7.04 15.49L0.32 8.77C-0.02 8.43 -0.3 7.75 -0.3 7.26L-0.3 0.17ZM2.73 3.36C2.73 4.03 3.28 4.58 3.95 4.58C4.62 4.58 5.16 4.03 5.16 3.36C5.16 2.69 4.62 2.15 3.95 2.15C3.28 2.15 2.73 2.69 2.73 3.36Z" fill="#B24C5A" fill-opacity="1.000000" fill-rule="nonzero"/>
</svg>
