<svg width="127.000000" height="23.000000" viewBox="0 0 127 23" fill="none" xmlns="http://www.w3.org/2000/svg" xmlns:xlink="http://www.w3.org/1999/xlink">
	<desc>
			Created with Pixso.
	</desc>
	<defs/>
	<path id="Star 1" d="M10.54 2.92L9.14 7.25C9 7.66 8.62 7.94 8.19 7.94L3.64 7.94C2.67 7.94 2.26 9.18 3.05 9.75L6.73 12.43C7.08 12.68 7.23 13.13 7.09 13.54L5.69 17.87C5.39 18.79 6.44 19.56 7.23 18.99L10.91 16.31C11.26 16.06 11.73 16.06 12.08 16.31L15.76 18.99C16.55 19.56 17.6 18.79 17.3 17.87L15.9 13.54C15.76 13.13 15.91 12.68 16.26 12.43L19.94 9.75C20.73 9.18 20.32 7.94 19.35 7.94L14.8 7.94C14.37 7.94 13.99 7.66 13.85 7.25L12.45 2.92C12.15 2 10.84 2 10.54 2.92Z" fill="#DCAD34" fill-opacity="1.000000" fill-rule="evenodd"/>
	<path id="Star 2" d="M36.54 2.92L35.14 7.25C35 7.66 34.62 7.94 34.19 7.94L29.64 7.94C28.67 7.94 28.26 9.18 29.05 9.75L32.73 12.43C33.08 12.68 33.23 13.13 33.09 13.54L31.69 17.87C31.39 18.79 32.44 19.56 33.23 18.99L36.91 16.31C37.26 16.06 37.73 16.06 38.08 16.31L41.76 18.99C42.55 19.56 43.6 18.79 43.3 17.87L41.9 13.54C41.76 13.13 41.91 12.68 42.26 12.43L45.94 9.75C46.73 9.18 46.32 7.94 45.35 7.94L40.8 7.94C40.37 7.94 39.99 7.66 39.85 7.25L38.45 2.92C38.15 2 36.84 2 36.54 2.92Z" fill="#DCAD34" fill-opacity="1.000000" fill-rule="evenodd"/>
	<path id="Star 3" d="M62.54 2.92L61.14 7.25C61 7.66 60.62 7.94 60.19 7.94L55.64 7.94C54.67 7.94 54.26 9.18 55.05 9.75L58.73 12.43C59.08 12.68 59.23 13.13 59.09 13.54L57.69 17.87C57.39 18.79 58.44 19.56 59.23 18.99L62.91 16.31C63.26 16.06 63.73 16.06 64.08 16.31L67.76 18.99C68.55 19.56 69.6 18.79 69.3 17.87L67.9 13.54C67.76 13.13 67.91 12.68 68.26 12.43L71.94 9.75C72.73 9.18 72.32 7.94 71.35 7.94L66.8 7.94C66.37 7.94 65.99 7.66 65.85 7.25L64.45 2.92C64.15 2 62.84 2 62.54 2.92Z" fill="#DCAD34" fill-opacity="1.000000" fill-rule="evenodd"/>
	<path id="Star 5" d="M88.54 2.92L87.14 7.25C87 7.66 86.62 7.94 86.19 7.94L81.64 7.94C80.67 7.94 80.26 9.18 81.05 9.75L84.73 12.43C85.08 12.68 85.23 13.13 85.09 13.54L83.69 17.87C83.39 18.79 84.44 19.56 85.23 18.99L88.91 16.31C89.26 16.06 89.73 16.06 90.08 16.31L93.76 18.99C94.55 19.56 95.6 18.79 95.3 17.87L93.9 13.54C93.76 13.13 93.91 12.68 94.26 12.43L97.94 9.75C98.73 9.18 98.32 7.94 97.35 7.94L92.8 7.94C92.37 7.94 91.99 7.66 91.85 7.25L90.45 2.92C90.15 2 88.84 2 88.54 2.92Z" fill="#DCAD34" fill-opacity="1.000000" fill-rule="evenodd"/>
	<path id="Star 6" d="M114.54 2.92L113.14 7.25C113 7.66 112.62 7.94 112.19 7.94L107.64 7.94C106.67 7.94 106.26 9.18 107.05 9.75L110.73 12.43C111.08 12.68 111.23 13.13 111.09 13.54L109.69 17.87C109.39 18.79 110.44 19.56 111.23 18.99L114.91 16.31C115.26 16.06 115.73 16.06 116.08 16.31L119.77 18.99C120.55 19.56 121.6 18.79 121.3 17.87L119.9 13.54C119.76 13.13 119.91 12.68 120.26 12.43L123.94 9.75C124.73 9.18 124.32 7.94 123.35 7.94L118.8 7.94C118.37 7.94 117.99 7.66 117.85 7.25L116.45 2.92C116.15 2 114.84 2 114.54 2.92Z" fill="#DCAD34" fill-opacity="1.000000" fill-rule="evenodd"/>
</svg>
