<svg width="184.000000" height="156.000000" viewBox="0 0 184 156" fill="none" xmlns="http://www.w3.org/2000/svg" xmlns:xlink="http://www.w3.org/1999/xlink">
	<desc>
			Created with Pixso.
	</desc>
	<defs/>
	<path id="Vector" d="M21.37 149.55C48.41 149.8 74.17 146.93 97.78 139.02C116.37 165.13 160.84 162.65 184 115.91L179.88 106.92C159.5 140.17 139.5 147.99 119.8 131.96C193.91 100.73 171.23 36.4 120.63 38.06C125.74 15.01 113.8 3.68 91.19 -0.36C90.95 12.54 87.14 21.9 79.87 27.79C92.7 31.81 94.93 43.48 87.76 61.46L98.29 60.17C90.71 72.53 88.38 93.1 91.64 122.33C78.19 127.82 63.5 131.78 47.38 133.89C39.86 139.2 30.87 144.39 21.37 149.55ZM64.84 26.96C41.85 41.39 30.43 60.2 34.58 84.91C40.55 80.64 44.36 73.47 45.49 62.72C48.72 49.65 54 40.71 64.43 41.96C60.31 54.98 60.41 72.23 60.51 89.46C60.51 89.86 60.52 90.26 60.52 90.66C58.39 118.48 38.11 135.31 5.56 144.7L0 72.78C-0.21 54.5 10.22 42.12 24.91 32.1L72.05 4.77C75.75 2.62 79.29 0.9 79.46 7.03C78.94 14.55 73.49 21.08 64.84 26.96ZM107.66 60.25L117.13 61.69C141.83 71.76 135.45 92.79 109.31 114.09C103.13 96.14 100.56 78.2 107.66 60.25Z" fill="#FFC8D0" fill-opacity="0.500000" fill-rule="evenodd"/>
</svg>
